# xmcd
#
# Track frame offsets: 
#        150
#        21677
#        40224
#        54507
#        83447
#        98688
#        116398
#        141002
#        164866
#        186170
#        203100
#        224544
#        253852
#
# Disc length: 4382 seconds
#
# Revision: 0
# Processed by: cddbd v1.5.1PL2 Copyright (c) Steve Scherf et al.
# Submitted via: ExactAudioCopy v0.95b3
#
DISCID=bc111c0d
DTITLE=John Lee Hooker - Chill Out
DYEAR=1995
DGENRE=
TTITLE0=We'll Meet Again
TTITLE1=If You've Never Been In Love
TTITLE2=Talkin' The Blues
TTITLE3=Too Young
TTITLE4=Annie Mae
TTITLE5=Woman On My Mind
TTITLE6=Tupelo
TTITLE7=One Boubon, One Scotch, One Beer
TTITLE8=Medley: Serves Me Right  To Suffer - Syndicator
TTITLE9=Kiddio
TTITLE10=Deep Blue Sea
TTITLE11=Chill Out (Things Gonna Change)
TTITLE12=Data
EXTD=
EXTT0=
EXTT1=
EXTT2=
EXTT3=
EXTT4=
EXTT5=
EXTT6=
EXTT7=
EXTT8=
EXTT9=
EXTT10=
EXTT11=
EXTT12=
PLAYORDER=
